<svg width="41" height="41" viewBox="0 0 41 41" fill="none" xmlns="http://www.w3.org/2000/svg">
<path fill-rule="evenodd" clip-rule="evenodd" d="M0 20.4502C0.0132503 15.0176 2.1828 9.81195 6.03125 5.97755C9.8797 2.14315 15.0928 -0.00660987 20.5254 1.52676e-05C25.958 0.0066404 31.1658 2.16894 35.0049 6.01271C38.844 9.85649 41 15.0674 41 20.5C41 25.9326 38.844 31.1426 35.0049 34.9863C31.1658 38.8301 25.958 40.9934 20.5254 41C15.0928 41.0066 9.8797 38.8569 6.03125 35.0225C2.1828 31.1881 0.0132503 25.9824 0 20.5498V20.4502Z" fill="white"/>
<path d="M26.497 30.9569C25.1401 32.3289 23.6586 32.1123 22.2325 31.4623C20.7233 30.798 19.3388 30.7691 17.7465 31.4623C15.7527 32.3578 14.7004 32.0978 13.5097 30.9569C6.75294 23.6922 7.74983 12.6292 15.4204 12.2248C17.2896 12.3259 18.5911 13.2935 19.6849 13.3802C21.3187 13.0336 22.8833 12.037 24.6278 12.167C26.7186 12.3403 28.297 13.2069 29.3354 14.7667C25.0155 17.4674 26.0401 23.4034 30 25.0643C29.2108 27.2307 28.1862 29.3826 26.4832 30.9713L26.497 30.9569ZM19.5464 12.1381C19.3388 8.91741 21.8448 6.25997 24.7248 6C25.1263 9.7262 21.4848 12.4992 19.5464 12.1381Z" fill="black"/>
</svg>
