<svg width="41" height="41" viewBox="0 0 41 41" fill="none" xmlns="http://www.w3.org/2000/svg">
<path fill-rule="evenodd" clip-rule="evenodd" d="M0 20.4502C0.0132503 15.0176 2.1828 9.81195 6.03125 5.97755C9.8797 2.14315 15.0928 -0.00660987 20.5254 1.52676e-05C25.958 0.0066404 31.1658 2.16894 35.0049 6.01271C38.844 9.85649 41 15.0674 41 20.5C41 25.9326 38.844 31.1426 35.0049 34.9863C31.1658 38.8301 25.958 40.9934 20.5254 41C15.0928 41.0066 9.8797 38.8569 6.03125 35.0225C2.1828 31.1881 0.0132503 25.9824 0 20.5498V20.4502Z" fill="white"/>
<g clip-path="url(#clip0_2_28)">
<path d="M16.0573 7.85515C13.4595 8.75635 11.2192 10.4669 9.66539 12.7354C8.11158 15.004 7.32621 17.7111 7.42462 20.459C7.52304 23.2069 8.50006 25.8508 10.2122 28.0024C11.9243 30.1541 14.2813 31.6999 16.9369 32.413C19.0898 32.9685 21.3455 32.9929 23.51 32.4841C25.4708 32.0436 27.2836 31.1015 28.7709 29.75C30.3189 28.3004 31.4425 26.4563 32.0209 24.4159C32.6494 22.1971 32.7613 19.8638 32.348 17.595H20.258V22.6102H27.2597C27.1198 23.41 26.8199 24.1735 26.378 24.8547C25.9362 25.536 25.3614 26.1212 24.6881 26.5752C23.8333 27.1409 22.8694 27.5215 21.8586 27.6923C20.8449 27.8809 19.8051 27.8809 18.7914 27.6923C17.7639 27.4801 16.7919 27.0561 15.9375 26.4472C14.5647 25.4754 13.5339 24.0948 12.9922 22.5025C12.4415 20.8803 12.4415 19.1217 12.9922 17.4995C13.3778 16.3625 14.0152 15.3272 14.8569 14.4709C15.8201 13.4731 17.0395 12.7598 18.3814 12.4094C19.7233 12.0589 21.1358 12.0849 22.4639 12.4844C23.5015 12.8027 24.4503 13.3592 25.2345 14.1094C26.024 13.324 26.8121 12.5365 27.5989 11.747C28.0052 11.3225 28.448 10.9183 28.8481 10.4836C27.6508 9.36949 26.2454 8.50252 24.7125 7.93234C21.921 6.91873 18.8665 6.89149 16.0573 7.85515Z" fill="white"/>
<path d="M16.0573 7.85516C18.8663 6.89084 21.9207 6.91736 24.7125 7.93032C26.2457 8.50437 27.6504 9.37551 28.8461 10.4938C28.4398 10.9284 28.0112 11.3347 27.5969 11.7572C26.8087 12.544 26.0213 13.328 25.2345 14.1094C24.4502 13.3592 23.5014 12.8027 22.4639 12.4844C21.1362 12.0835 19.7238 12.056 18.3815 12.405C17.0393 12.754 15.8191 13.466 14.8548 14.4628C14.0131 15.3191 13.3757 16.3544 12.9901 17.4914L8.77936 14.2313C10.2866 11.2424 12.8962 8.95615 16.0573 7.85516Z" fill="#E33629"/>
<path d="M7.66221 17.4609C7.88837 16.3392 8.26412 15.253 8.7794 14.2312L12.9902 17.4995C12.4395 19.1217 12.4395 20.8803 12.9902 22.5025C11.5873 23.5858 10.1837 24.6746 8.7794 25.7687C7.48986 23.2019 7.09657 20.2773 7.66221 17.4609Z" fill="#F8BD00"/>
<path d="M20.258 17.593H32.348C32.7613 19.8618 32.6495 22.1951 32.021 24.4139C31.4425 26.4543 30.3189 28.2984 28.771 29.748C27.412 28.6877 26.047 27.6355 24.6881 26.5752C25.3619 26.1207 25.9369 25.5349 26.3788 24.8529C26.8206 24.1709 27.1203 23.4067 27.2597 22.6061H20.258C20.256 20.9364 20.258 19.2647 20.258 17.593Z" fill="#587DBD"/>
<path d="M8.77734 25.7688C10.1816 24.6854 11.5852 23.5967 12.9881 22.5025C13.5309 24.0954 14.5632 25.476 15.9375 26.4472C16.7946 27.0532 17.7687 27.4739 18.7975 27.6822C19.8112 27.8707 20.851 27.8707 21.8647 27.6822C22.8755 27.5113 23.8393 27.1308 24.6942 26.565C26.0531 27.6253 27.4181 28.6775 28.777 29.7378C27.2899 31.0901 25.4771 32.0329 23.5161 32.4739C21.3516 32.9828 19.0959 32.9584 16.943 32.4028C15.2402 31.9482 13.6497 31.1467 12.2711 30.0486C10.8121 28.89 9.62038 27.4302 8.77734 25.7688Z" fill="#319F43"/>
</g>
<defs>
<clipPath id="clip0_2_28">
<rect width="26" height="26" fill="white" transform="translate(7 7)"/>
</clipPath>
</defs>
</svg>
