<svg width="44" height="36" viewBox="0 0 44 36" fill="none" xmlns="http://www.w3.org/2000/svg">
<path d="M9.678 14.271C5.275 15.318 2 19.277 2 24C2 29.523 6.477 34 12 34C12.947 34 13.864 33.868 14.733 33.622M34.055 14.271C38.458 15.318 41.732 19.277 41.732 24C41.732 29.523 37.255 34 31.732 34C30.785 34 29.868 33.868 29 33.622M34 14C34 7.373 28.627 2 22 2C15.373 2 10 7.373 10 14M15.065 21.881L22 14.924L29.132 22M22 32V18.462" stroke="#F21A5D" stroke-width="4" stroke-linecap="round" stroke-linejoin="round"/>
</svg>
