<svg xmlns="http://www.w3.org/2000/svg" width="115.328" height="82.074" viewBox="0 0 115.328 82.074"><defs><style>.a{fill:#f21a5d;}</style></defs><path class="a" d="M21967.99,23500.637a3,3,0,0,1,0-6h13.912a16.016,16.016,0,1,0,0-32.031h-2.365a3,3,0,0,1-3-3v-5.432a29.582,29.582,0,0,0-58.771-4.824,3,3,0,0,1-2.809,2.506,21.4,21.4,0,0,0,1.086,42.783h8.475a3,3,0,0,1,0,6h-8.475a27.4,27.4,0,0,1-3.75-54.555,35.584,35.584,0,0,1,70.242,8.086v2.441a22.018,22.018,0,0,1-.637,44.027Zm-24.73-3v-31.7l-6.652,6.654a3,3,0,0,1-4.246-4.242l11.777-11.777a3,3,0,0,1,4.24,0l11.773,11.777a3,3,0,0,1-4.242,4.242l-6.652-6.65v31.7a3,3,0,1,1-6,0Z" transform="translate(-21888.592 -23418.563)"/></svg>